<svg width="942" height="942" viewBox="0 0 942 942" fill="none" xmlns="http://www.w3.org/2000/svg">
<g filter="url(#filter0_d_60_110)">
<path d="M932 471C932 725.603 725.603 932 471 932C216.397 932 10 725.603 10 471C10 216.397 216.397 10 471 10C725.603 10 932 216.397 932 471Z" fill="white"/>
<path fill-rule="evenodd" clip-rule="evenodd" d="M470.933 58.3253C461.528 62.4856 461.037 65.7522 461.037 124.112C461.037 182.753 461.364 184.739 471.849 189.804C477 192.294 478.341 192.352 484.069 190.336C495.763 186.218 496.074 184.515 496.076 124.357C496.079 65.2575 495.641 62.4288 485.834 58.2556C479.044 55.3669 477.604 55.3734 470.933 58.3253ZM190.9 178.176C184.874 184.312 183.863 190.763 187.743 198.288C188.985 200.697 206.788 219.638 227.306 240.378L264.609 278.088H272.156C278.374 278.088 280.525 277.253 284.36 273.347C288.195 269.442 289.016 267.252 289.016 260.92V253.235L251.983 215.249C231.616 194.355 213.016 176.227 210.65 174.961C203.26 171.01 196.925 172.04 190.9 178.176ZM745.351 175.719C742.723 177.394 724.265 195.521 704.336 216.003L668.1 253.242V260.923C668.1 267.252 668.921 269.442 672.756 273.347C676.591 277.253 678.742 278.088 684.96 278.088H692.507L729.81 240.378C750.328 219.638 768.131 200.697 769.373 198.288C773.253 190.763 772.242 184.312 766.216 178.176C759.88 171.724 752.907 170.903 745.351 175.719ZM461.037 270.498V290.482L439.423 293.187C402.114 297.86 377.245 308.377 358.148 327.558C339.998 345.785 330.522 369.716 330.455 397.487C330.333 449.143 358.833 473.506 442.322 493.112L461.037 497.508V542.087V586.665L456.06 585.651C432.953 580.946 414.064 561.393 410.815 538.817L409.706 531.113H365.928H322.152L323.301 541.25C328.012 582.783 349.961 614.434 387.022 633.134C401.281 640.329 423.342 646.838 439.535 648.625C444.791 649.206 451.78 650.073 455.064 650.552L461.037 651.423V671.555V691.686H478.558H496.079V671.542V651.395L506.83 650.38C585.361 642.959 630.477 604.14 634.128 540.845C637.39 484.281 605.593 453.874 523.953 435.488C515.192 433.514 505.338 431.204 502.052 430.352L496.079 428.805V392.245V355.684L501.192 356.828C510.533 358.917 519.518 363.7 525.45 369.74C531.78 376.186 533.591 379.957 536.12 391.971L537.756 399.735H581.608H625.461L624.351 390.409C622.975 378.859 617.219 361.003 611.408 350.265C608.995 345.805 601.144 336.197 593.964 328.912C583.233 318.029 578.248 314.362 565.969 308.323C549.81 300.379 533.243 295.609 512.152 292.829C504.785 291.859 498.156 291.064 497.418 291.064C496.681 291.064 496.079 281.941 496.079 270.79V250.515H478.558H461.037V270.498ZM448.824 355.876C441.527 357.645 430.057 364.881 426.99 369.649C425.536 371.91 423.914 376.958 423.388 380.867C421.112 397.784 430.789 408.704 457.454 419.313L461.037 420.739V387.53V354.32L457.454 354.486C455.482 354.578 451.598 355.203 448.824 355.876ZM80.3599 456.101C68.1798 462.297 68.6083 481.275 81.048 486.568C85.5572 488.486 96.5092 488.942 138.072 488.942C185.094 488.942 189.993 488.684 195.066 485.937C207.095 479.425 206.821 461.878 194.598 455.971C189.71 453.61 182.323 453.259 137.46 453.262C91.5971 453.264 85.3215 453.576 80.3599 456.101ZM762.05 456.265C750.021 462.777 750.295 480.323 762.518 486.23C767.406 488.592 774.794 488.942 819.656 488.939C878.8 488.937 880.525 488.613 884.523 476.778C886.434 471.119 886.389 469.505 884.182 464.149C879.846 453.636 877.596 453.259 819.044 453.259C772.022 453.259 767.123 453.517 762.05 456.265ZM496.079 547.332C496.079 585.398 496.263 588.043 498.866 587.257C500.398 586.793 503.804 585.92 506.432 585.319C515.006 583.354 529.569 574.508 534.352 568.359C539.715 561.463 543.071 548.139 541.54 539.823C539.594 529.259 527.728 518.908 508.821 511.28C494.644 505.561 496.079 501.499 496.079 547.332ZM227.306 701.823C206.788 722.565 188.985 741.504 187.743 743.913C183.863 751.439 184.874 757.889 190.9 764.025C196.925 770.161 203.26 771.191 210.65 767.24C213.016 765.975 231.616 747.846 251.983 726.952L289.016 688.966V681.281C289.016 674.949 288.195 672.76 284.36 668.854C280.525 664.948 278.374 664.113 272.156 664.113H264.609L227.306 701.823ZM672.721 669.151C669.023 673.183 668.1 675.661 668.1 681.577V688.966L705.133 726.952C725.501 747.846 744.1 765.975 746.466 767.24C753.856 771.191 760.191 770.161 766.216 764.025C772.242 757.889 773.253 751.439 769.373 743.913C768.131 741.504 750.328 722.565 729.81 701.823L692.507 664.113H684.925C678.496 664.113 676.639 664.88 672.721 669.151ZM471.265 752.378C461.566 756.678 461.037 760.076 461.037 818.09C461.037 877.418 461.413 879.739 471.731 884.15C476.991 886.398 478.576 886.444 484.133 884.497C495.755 880.426 496.074 878.67 496.076 818.443C496.079 759.578 495.604 756.608 485.503 752.31C479.114 749.591 477.532 749.6 471.265 752.378Z" fill="#62F083"/>
</g>
<defs>
<filter id="filter0_d_60_110" x="0" y="0" width="942" height="942" filterUnits="userSpaceOnUse" color-interpolation-filters="sRGB">
<feFlood flood-opacity="0" result="BackgroundImageFix"/>
<feColorMatrix in="SourceAlpha" type="matrix" values="0 0 0 0 0 0 0 0 0 0 0 0 0 0 0 0 0 0 127 0" result="hardAlpha"/>
<feOffset/>
<feGaussianBlur stdDeviation="5"/>
<feComposite in2="hardAlpha" operator="out"/>
<feColorMatrix type="matrix" values="0 0 0 0 0 0 0 0 0 0 0 0 0 0 0 0 0 0 0.25 0"/>
<feBlend mode="normal" in2="BackgroundImageFix" result="effect1_dropShadow_60_110"/>
<feBlend mode="normal" in="SourceGraphic" in2="effect1_dropShadow_60_110" result="shape"/>
</filter>
</defs>
</svg>
