<svg width="3640" height="517" viewBox="0 0 3640 517" fill="none" xmlns="http://www.w3.org/2000/svg">
<g filter="url(#filter0_d_60_117)">
<path d="M10 172.309C10 143.205 17.2827 116.154 31.8481 91.1543C46.4136 66.155 66.0209 46.3795 90.6701 31.8277C115.693 17.2759 142.956 10 172.461 10C201.965 10 229.042 17.2759 253.691 31.8277C278.714 46.3795 298.508 66.155 313.073 91.1543C327.638 116.154 334.921 143.205 334.921 172.309V258.5C334.921 287.604 327.638 314.655 313.073 339.654C298.508 364.654 278.714 384.429 253.691 398.981C229.042 413.533 201.965 420.809 172.461 420.809C142.956 420.809 115.693 413.533 90.6701 398.981C66.0209 384.429 46.4136 364.654 31.8481 339.654C17.2827 314.655 10 287.604 10 258.5V172.309ZM111.958 258.5C111.958 276.41 117.56 291.708 128.764 304.394C139.968 317.08 154.534 323.423 172.461 323.423C190.014 323.423 204.393 317.08 215.597 304.394C226.801 291.708 232.403 276.41 232.403 258.5V171.749C232.403 153.466 226.801 138.168 215.597 125.855C204.393 113.542 190.014 107.385 172.461 107.385C154.534 107.385 139.968 113.542 128.764 125.855C117.56 138.168 111.958 153.466 111.958 171.749V258.5Z" fill="white"/>
<path d="M671.738 33.5068C694.146 43.9542 711.7 59.4388 724.398 79.9606C737.469 100.482 744.005 123.243 744.005 148.242C744.005 177.346 735.042 203.464 717.115 226.598C699.562 249.358 676.967 264.47 649.33 271.932L748.487 410.175H723.837L628.042 275.85L610.115 276.41H469.503V410.175H448.775V20.634H597.23C613.663 20.634 627.668 21.7534 639.246 23.9921C651.197 25.8577 662.028 29.0293 671.738 33.5068ZM615.717 255.702C635.138 255.702 653.064 250.851 669.497 241.15C685.93 231.449 699.002 218.389 708.712 201.972C718.422 185.554 723.277 167.645 723.277 148.242C723.277 126.601 717.488 107.012 705.911 89.4752C694.707 71.9385 679.021 58.8791 658.853 50.2973C644.288 44.3273 623.747 41.3423 597.23 41.3423H469.503V255.702H615.717Z" fill="white"/>
<path d="M1161.49 280.328C1161.49 303.088 1156.08 324.17 1145.25 343.572C1134.42 362.974 1119.29 379.019 1099.87 391.705C1080.45 404.391 1058.6 412.6 1034.32 416.331L989.508 507L971.021 497.485L1010.8 418.57H1005.75C977.37 418.57 951.04 411.48 926.764 397.302C902.489 383.123 883.255 364.094 869.063 340.214C854.871 315.961 847.775 289.656 847.775 261.298V169.51C847.775 141.153 854.684 115.034 868.503 91.1543C882.695 66.9013 901.742 47.6854 925.644 33.5068C949.92 19.3281 976.25 12.2387 1004.63 12.2387C1033.39 12.2387 1059.53 18.3953 1083.06 30.7083C1106.96 42.6483 1125.83 59.2523 1139.64 80.5203C1153.46 101.415 1160.37 124.735 1160.37 150.481H1140.2C1139.83 128.093 1133.67 107.945 1121.72 90.0349C1109.77 72.125 1093.52 58.1329 1072.98 48.0586C1052.81 37.9842 1030.03 32.9471 1004.63 32.9471C979.984 32.9471 957.202 39.1036 936.288 51.4167C915.373 63.7297 898.754 80.3337 886.429 101.229C874.105 122.124 867.942 144.884 867.942 169.51V261.298C867.942 285.925 874.105 308.685 886.429 329.58C899.127 350.475 915.934 367.079 936.848 379.392C958.136 391.705 981.105 397.862 1005.75 397.862C1031.15 397.862 1054.12 392.824 1074.66 382.75C1095.2 372.676 1111.26 358.684 1122.84 340.774C1134.79 322.864 1140.95 302.715 1141.32 280.328H1161.49Z" fill="white"/>
<path d="M1405.87 20.634H1427.72L1587.94 410.175H1565.53L1512.87 281.447H1320.72L1267.5 410.175H1245.65L1405.87 20.634ZM1329.13 261.298H1504.47L1416.52 47.4989L1329.13 261.298Z" fill="white"/>
<path d="M1673.79 20.0743H1696.19L1832.32 260.739L1967.9 20.0743H1988.62V409.615H1673.79V20.0743ZM1694.51 389.466H1967.9V62.0507L1841.85 283.686H1822.24L1694.51 58.6926V389.466Z" fill="white"/>
<path d="M2111.44 20.634H2385.94V41.3423H2132.17V199.173H2352.89V219.882H2132.17V389.466H2385.94V410.175H2111.44V20.634Z" fill="white"/>
<path d="M2508.2 410.175V20.634H2530.05L2802.31 284.805V20.634H2823.04V410.175H2802.31V313.909L2528.93 47.4989V410.175H2508.2Z" fill="white"/>
<path d="M3232.68 20.634V41.3423H3085.35V410.175H3065.18V41.3423H2917.84V20.634H3232.68Z" fill="white"/>
<path d="M3355.5 20.634H3630V41.3423H3376.23V199.173H3596.95V219.882H3376.23V389.466H3630V410.175H3355.5V20.634Z" fill="white"/>
</g>
<defs>
<filter id="filter0_d_60_117" x="0" y="0" width="3640" height="517" filterUnits="userSpaceOnUse" color-interpolation-filters="sRGB">
<feFlood flood-opacity="0" result="BackgroundImageFix"/>
<feColorMatrix in="SourceAlpha" type="matrix" values="0 0 0 0 0 0 0 0 0 0 0 0 0 0 0 0 0 0 127 0" result="hardAlpha"/>
<feOffset/>
<feGaussianBlur stdDeviation="5"/>
<feComposite in2="hardAlpha" operator="out"/>
<feColorMatrix type="matrix" values="0 0 0 0 0 0 0 0 0 0 0 0 0 0 0 0 0 0 0.25 0"/>
<feBlend mode="normal" in2="BackgroundImageFix" result="effect1_dropShadow_60_117"/>
<feBlend mode="normal" in="SourceGraphic" in2="effect1_dropShadow_60_117" result="shape"/>
</filter>
</defs>
</svg>
